<svg id="svg" version="1.1" xmlns="http://www.w3.org/2000/svg" xmlns:xlink="http://www.w3.org/1999/xlink" width="400" height="400" viewBox="0, 0, 400,400"><g id="svgg"><path id="path0" d="M153.800 38.367 C 150.526 39.169,149.080 40.862,148.894 44.113 C 148.771 46.249,154.763 85.961,162.003 131.000 C 163.045 137.483,163.692 139.214,165.793 141.151 C 168.530 143.674,167.845 143.626,199.703 143.508 L 228.663 143.400 230.625 142.187 C 234.471 139.809,233.927 142.252,241.806 92.000 C 250.032 39.529,249.920 41.039,245.747 38.968 C 244.130 38.165,156.950 37.596,153.800 38.367 M169.219 149.717 C 164.002 151.399,161.891 162.081,165.845 166.781 C 167.874 169.192,167.987 169.200,199.200 169.200 C 230.425 169.200,230.525 169.193,232.559 166.775 C 236.159 162.497,234.749 152.611,230.200 150.236 C 228.313 149.250,172.148 148.772,169.219 149.717 M188.600 183.174 C 183.595 184.392,183.038 185.785,182.869 197.482 C 182.624 214.580,182.822 214.796,198.800 214.796 C 214.640 214.796,214.796 214.640,214.796 198.800 C 214.796 182.974,214.590 182.769,198.827 182.841 C 193.862 182.863,189.260 183.013,188.600 183.174 M247.221 187.691 C 244.842 188.963,244.601 189.341,229.782 215.000 C 215.804 239.203,215.067 240.606,215.067 243.026 C 215.067 248.326,224.707 253.969,229.803 251.654 C 232.397 250.476,233.198 249.252,246.934 225.475 C 261.288 200.627,261.990 199.304,261.996 197.087 C 262.011 191.329,252.147 185.056,247.221 187.691 M147.754 190.184 C 141.311 193.422,139.192 197.151,141.122 201.849 C 142.381 204.912,168.187 249.279,169.746 251.061 C 175.408 257.530,189.161 250.992,187.045 242.836 C 186.630 241.233,169.526 210.931,160.497 195.800 C 156.105 188.441,153.503 187.294,147.754 190.184 M271.059 199.611 C 267.402 200.707,267.314 200.835,251.853 227.661 C 237.379 252.773,237.600 252.345,237.600 255.227 C 237.600 259.765,236.848 259.032,263.840 280.819 C 317.980 324.519,314.347 321.822,317.708 320.815 C 320.773 319.897,320.664 320.062,337.293 291.200 C 369.948 234.524,368.327 237.996,363.899 234.206 C 362.016 232.595,364.256 233.497,314.200 214.181 C 272.946 198.260,274.177 198.676,271.059 199.611 M124.800 202.743 C 121.236 203.957,45.152 233.323,41.959 234.717 C 34.734 237.872,34.855 240.101,43.032 254.495 C 62.187 288.216,79.511 317.865,81.484 320.306 C 85.032 324.694,88.158 324.212,95.684 318.116 C 97.288 316.816,112.523 304.526,129.539 290.803 C 162.248 264.426,163.715 263.179,164.624 261.005 C 165.416 259.110,165.334 255.731,164.450 253.800 C 163.439 251.591,138.687 208.699,136.912 206.080 C 134.033 201.832,130.408 200.833,124.800 202.743 " stroke="none" fill="#3c2424" fill-rule="evenodd"></path><path id="path1" d="M0.000 200.000 L 0.000 400.000 200.000 400.000 L 400.000 400.000 400.000 200.000 L 400.000 0.000 200.000 0.000 L 0.000 0.000 0.000 200.000 M245.747 38.968 C 249.920 41.039,250.032 39.529,241.806 92.000 C 233.927 142.252,234.471 139.809,230.625 142.187 L 228.663 143.400 199.703 143.508 C 167.845 143.626,168.530 143.674,165.793 141.151 C 163.692 139.214,163.045 137.483,162.003 131.000 C 154.763 85.961,148.771 46.249,148.894 44.113 C 149.080 40.862,150.526 39.169,153.800 38.367 C 156.950 37.596,244.130 38.165,245.747 38.968 M230.200 150.236 C 234.749 152.611,236.159 162.497,232.559 166.775 C 230.525 169.193,230.425 169.200,199.200 169.200 C 167.987 169.200,167.874 169.192,165.845 166.781 C 161.891 162.081,164.002 151.399,169.219 149.717 C 172.148 148.772,228.313 149.250,230.200 150.236 M209.897 183.407 C 214.247 184.698,214.796 186.422,214.796 198.800 C 214.796 214.640,214.640 214.796,198.800 214.796 C 182.822 214.796,182.624 214.580,182.869 197.482 C 183.078 182.970,183.141 182.912,198.827 182.841 C 205.826 182.809,208.314 182.936,209.897 183.407 M254.584 188.362 C 261.210 191.624,263.341 195.703,261.022 200.684 C 259.319 204.342,233.865 248.126,232.611 249.554 C 229.329 253.292,225.604 253.243,219.563 249.382 C 212.372 244.788,212.155 245.520,229.782 215.000 C 247.768 183.858,247.034 184.646,254.584 188.362 M155.120 189.364 C 157.671 190.697,157.258 190.044,174.595 220.154 C 186.991 241.681,187.881 243.536,187.131 246.282 C 186.239 249.548,179.545 254.000,175.526 254.000 C 171.003 254.000,170.601 253.460,155.000 226.397 C 139.010 198.660,139.427 199.581,141.157 195.772 C 143.158 191.367,151.567 187.508,155.120 189.364 M276.200 199.749 C 277.850 200.194,334.424 221.888,356.228 230.436 C 365.075 233.905,367.153 236.037,365.889 240.349 C 364.858 243.867,323.150 316.323,320.601 319.027 C 316.828 323.027,315.503 322.418,298.898 309.071 C 233.725 256.685,237.600 260.089,237.600 255.227 C 237.600 252.345,237.379 252.773,251.853 227.661 C 269.196 197.569,268.991 197.805,276.200 199.749 M133.779 202.966 C 136.067 204.308,136.476 204.953,151.033 230.200 C 165.477 255.252,165.179 254.678,165.191 257.513 C 165.211 262.300,167.289 260.360,129.539 290.803 C 112.523 304.526,97.288 316.816,95.684 318.116 C 88.158 324.212,85.032 324.694,81.484 320.306 C 79.511 317.865,62.187 288.216,43.032 254.495 C 35.663 241.523,35.239 239.805,38.664 236.797 C 40.585 235.111,38.342 236.024,82.600 218.907 C 133.037 199.400,129.548 200.487,133.779 202.966 " stroke="none" fill="#fb543c" fill-rule="evenodd"></path></g></svg>