<svg id="svg" version="1.1" xmlns="http://www.w3.org/2000/svg" xmlns:xlink="http://www.w3.org/1999/xlink" width="400" height="400" viewBox="0, 0, 400,400"><g id="svgg"><path id="path0" d="M147.281 39.173 C 147.301 39.931,150.959 63.583,155.411 91.732 L 163.505 142.913 198.819 142.913 L 234.133 142.913 242.227 91.732 C 246.678 63.583,250.337 39.931,250.357 39.173 C 250.392 37.875,247.427 37.795,198.819 37.795 C 150.211 37.795,147.246 37.875,147.281 39.173 M163.780 159.449 L 163.780 169.291 199.213 169.291 L 234.646 169.291 234.646 159.449 L 234.646 149.606 199.213 149.606 L 163.780 149.606 163.780 159.449 M182.677 198.819 L 182.677 214.961 198.819 214.961 L 214.961 214.961 214.961 198.819 L 214.961 182.677 198.819 182.677 L 182.677 182.677 182.677 198.819 M246.168 186.024 C 243.514 190.251,212.613 244.068,212.419 244.800 C 212.233 245.503,227.791 255.140,229.056 255.105 C 229.651 255.089,264.173 195.149,264.173 194.132 C 264.173 193.427,249.086 184.310,247.853 184.271 C 247.538 184.260,246.780 185.049,246.168 186.024 M146.063 190.505 C 141.732 193.035,138.189 195.445,138.189 195.860 C 138.189 197.086,172.774 256.690,173.486 256.691 C 173.845 256.692,177.828 254.536,182.338 251.900 L 190.537 247.107 188.628 243.829 C 187.578 242.026,179.662 228.344,171.037 213.425 C 162.411 198.506,155.036 186.210,154.646 186.102 C 154.256 185.993,150.394 187.974,146.063 190.505 M269.011 198.560 C 268.359 199.569,260.362 213.327,251.240 229.134 C 232.764 261.151,233.969 257.555,240.152 262.205 C 241.591 263.287,243.156 264.549,243.629 265.009 C 246.118 267.430,317.344 324.409,317.876 324.405 C 318.581 324.400,369.291 236.899,369.291 235.688 C 369.291 235.262,362.116 232.156,353.346 228.786 C 344.577 225.415,334.390 221.487,330.709 220.056 C 323.361 217.200,273.632 198.018,271.515 197.222 C 270.641 196.894,269.796 197.346,269.011 198.560 M119.291 204.111 C 112.795 206.695,105.354 209.626,102.756 210.624 C 100.157 211.622,94.843 213.683,90.945 215.205 C 87.047 216.727,72.697 222.276,59.055 227.536 C 45.413 232.796,33.993 237.356,33.675 237.670 C 33.027 238.311,83.532 326.138,84.791 326.558 C 85.235 326.706,93.408 320.525,102.953 312.823 C 150.225 274.677,167.717 260.431,167.717 260.075 C 167.717 258.789,132.679 199.231,131.970 199.312 C 131.493 199.367,125.787 201.526,119.291 204.111 " stroke="none" fill="#000000" fill-rule="evenodd"></path></g></svg>